<?xml version="1.0" encoding="UTF-8"?><svg id="Layer_2" xmlns="http://www.w3.org/2000/svg" viewBox="0 0 352.17 373.59"><defs><style>.cls-1{fill:#fe9705;}</style></defs><g id="Layer_1-2"><path class="cls-1" d="M312.2.93s.03,0,.05,0c-.55-.11-1.1-.2-1.66-.29-26.92-4.31-52.24,14.03-56.55,40.96-3.23,20.19,6.27,39.47,22.58,49.67-11.03,21.71-24.82,50-39.41,81.13-32.75,69.86-57.16,127.48-54.52,128.72,2.62,1.24,31.31-54.39,64.06-124.26,14.53-31,27.42-59.59,37.03-81.91,3.53,1.47,7.28,2.56,11.22,3.19.93.15,1.85.26,2.77.36.3.03.6.05.9.07.63.05,1.25.1,1.87.13.35.02.69.02,1.03.03.58.02,1.17.02,1.75.02.34,0,.69,0,1.03-.02.6-.02,1.2-.05,1.79-.09.22-.01.43-.02.65-.03-.01,0-.03,0-.04,0,22.18-1.77,41.12-18.47,44.79-41.42,4.22-26.38-13.31-51.21-39.35-56.25"/><path class="cls-1" d="M166.78,304.35s.02,0,.04,0c-.39-.08-.78-.14-1.18-.21-5.8-.93-11.5-.36-16.7,1.4-9.38-21.27-23.95-51.81-40.93-85.45-14.53-28.78-28.29-54.8-39.19-74.35,9.56-6.58,16.53-16.9,18.5-29.26,3.76-23.48-11.84-45.57-35.01-50.06.02,0,.03,0,.05,0-.49-.1-.98-.18-1.48-.26C26.92,62.33,4.39,78.65.56,102.61c-3.83,23.96,12.49,46.49,36.45,50.32.82.13,1.65.23,2.47.32.27.03.54.04.81.07.55.05,1.1.09,1.65.11.31.01.61.02.92.03.52.01,1.04.02,1.56.01.3,0,.61,0,.91-.02.54-.02,1.08-.05,1.62-.08.18-.01.37-.01.56-.03-.01,0-.02,0-.03,0,4.77-.38,9.36-1.53,13.64-3.36,9.25,20.34,21.96,46.75,36.42,75.4,16.92,33.53,32.8,63.3,44.33,83.47-8.39,5.15-14.58,13.79-16.26,24.27-3.05,19.06,9.93,36.98,28.99,40.03.66.11,1.31.19,1.96.25.21.02.42.03.63.05.44.04.89.07,1.33.09.24.01.48.02.72.02.42.01.83.01,1.25.01.24,0,.48,0,.72-.01.43-.01.86-.04,1.3-.07.15-.01.29-.01.44-.02,0,0-.02,0-.03,0,15.7-1.25,29.1-13.07,31.7-29.32,2.99-18.67-9.42-36.25-27.85-39.82"/></g></svg>